<svg xmlns="http://www.w3.org/2000/svg" width="21.11" height="21" viewBox="0 0 21.11 21">
  <path id="search-icon" d="M15.621,15.654a.986.986,0,0,1,1.393,0h0l2.555,2.062h.044a1.348,1.348,0,0,1,0,1.892,1.314,1.314,0,0,1-1.872,0h0l-2.12-2.43-.08-.091a1.084,1.084,0,0,1,.08-1.433ZM8.578,0a8.531,8.531,0,0,1,6.065,2.539A8.717,8.717,0,0,1,17.155,8.67a8.624,8.624,0,0,1-8.578,8.67A8.624,8.624,0,0,1,0,8.67,8.624,8.624,0,0,1,8.578,0Z" transform="translate(0.5 0.5)" fill="#fff" stroke="#fff" stroke-width="1"/>
</svg>
