<svg xmlns="http://www.w3.org/2000/svg" width="14.002" height="13.301" viewBox="0 0 14.002 13.301">
  <g id="star-icon" transform="translate(0 0)">
    <path id="Path_2" data-name="Path 2" d="M11.144,8.274a.767.767,0,0,0-.223.679l.622,3.444a.757.757,0,0,1-.315.756.77.77,0,0,1-.819.056l-3.1-1.617a.8.8,0,0,0-.35-.092h-.19a.568.568,0,0,0-.189.063l-3.1,1.625a.816.816,0,0,1-.5.077.778.778,0,0,1-.623-.89l.623-3.444a.785.785,0,0,0-.223-.685L.231,5.8a.756.756,0,0,1-.188-.791A.786.786,0,0,1,.665,4.48l3.479-.5a.778.778,0,0,0,.616-.426L6.293.406A.712.712,0,0,1,6.434.217L6.5.168A.462.462,0,0,1,6.609.077L6.685.049,6.8,0H7.1A.786.786,0,0,1,7.715.42l1.553,3.13a.778.778,0,0,0,.581.426l3.479.5a.794.794,0,0,1,.637.525.76.76,0,0,1-.2.791Z" fill="#fff"/>
  </g>
</svg>
